<svg xmlns="http://www.w3.org/2000/svg" xmlns:xlink="http://www.w3.org/1999/xlink"><defs>
    <clipPath id="a" clipPathUnits="userSpaceOnUse">
      <path d="M0 31.92h31.92V0H0z"/>
    </clipPath>
  
    <clipPath id="a" clipPathUnits="userSpaceOnUse">
      <path d="M0 48h48V0H0z"/>
    </clipPath>
  
    <clipPath id="a" clipPathUnits="userSpaceOnUse">
      <path d="M0 48h48V0H0z"/>
    </clipPath>
  </defs><symbol id="sp-contrast-icon" viewBox="0 0 42.56 42.56">
  
  
  <g clip-path="url(#a)" transform="matrix(1.33333 0 0 -1.33333 0 42.56)">
    <path d="M15.96 31.92C7.146 31.92 0 24.775 0 15.96 0 7.147 7.146 0 15.96 0s15.96 7.147 15.96 15.96c0 8.815-7.146 15.96-15.96 15.96m0-4c6.595 0 11.96-5.365 11.96-11.96C27.92 9.365 22.555 4 15.96 4 9.365 4 4 9.365 4 15.96c0 6.595 5.365 11.96 11.96 11.96"/>
    <path d="M15.96 7.629a8.519 8.519 0 018.52 8.52 8.518 8.518 0 01-8.52 8.518"/>
  </g>
</symbol><symbol id="sp-crop-icon" viewBox="0 0 64 64">
  
  
  <g clip-path="url(#a)" transform="matrix(1.33333 0 0 -1.33333 0 64)">
    <path d="M14 14v32h-4v-8H2v-4h8V14c0-2.21 1.79-4 4-4h20V2h4v8h8v4zm20 4h4v16c0 2.21-1.79 4-4 4H18v-4h16z"/>
  </g>
</symbol><symbol id="sp-fill-icon" viewBox="0 0 64 64">
  
  
  <g clip-path="url(#a)" transform="matrix(1.33333 0 0 -1.33333 0 64)">
    <path d="M38 25s-4-4.33-4-7c0-2.21 1.79-4 4-4s4 1.79 4 4c0 2.67-4 7-4 7m-27.59 3L20 37.58 29.59 28zm22.71 2.12L15.24 48l-2.83-2.83 4.76-4.76L6.88 30.12a3 3 0 010-4.24l11-11c.58-.59 1.35-.88 2.12-.88s1.54.29 2.12.88l11 11a3 3 0 010 4.24M48 5H0v3h48z"/>
  </g>
</symbol><symbol id="sp-htmlacademy" viewBox="0 0 26.943 34.09"><path d="M13.62.017L13.472 0 0 1.412v24.66l13.472 8.018 13.43-7.99.042-.026V1.412L13.62.017zm11.4 12.11L13.494 5.334V5.23l-.088.05-.088-.056v.11L1.924 12.117v-8.97l11.547-1.213L25.02 3.147v8.98zm-11.615-5.34L24.923 13.5l-4.48 2.64-7.092-4.22-.012 1.414 5.904 3.513-.86.507-5.03-2.992-.014 1.415 3.827 2.275-.782.523-3.032-1.787-.012 1.413 1.852 1.092-1.8 1.08-11.356-6.75 11.37-6.835zm-11.48 8.34l11.41 6.79.016 1.045-7.94-4.728-.015 1.416 7.98 4.796.016 1.076-7.97-4.74-.014 1.414 8.02 4.82.046.027 8.143-4.872v-1.267l-.01-.148v-3.76l3.414-2.037v10.02L13.47 31.85 1.925 24.98v-9.853z"/></symbol><symbol id="sp-logo-blue-desktop" viewBox="0 0 146.3 40.375"><path d="M71.874 18.66c0-.707.58-1.287 1.256-1.287h7.18c5.087 0 8.436 2.704 8.436 7.147v.064c0 4.86-4.057 7.373-8.854 7.373h-5.474v6.825c0 .708-.58 1.288-1.288 1.288-.676 0-1.256-.58-1.256-1.288v-20.12zm8.114 10.98c3.734 0 6.182-1.996 6.182-4.958v-.064c0-3.22-2.415-4.894-6.054-4.894h-5.698v9.917h5.57zM93.603 18.5c0-.708.58-1.288 1.255-1.288.71 0 1.288.58 1.288 1.288v20.283c0 .708-.58 1.288-1.288 1.288-.676 0-1.255-.58-1.255-1.287V18.5zM102.744 18.532c0-.676.58-1.256 1.256-1.256h.354c.58 0 .934.29 1.288.74l13.684 17.45V18.468c0-.676.547-1.256 1.256-1.256.676 0 1.223.58 1.223 1.256v20.348c0 .676-.482 1.19-1.158 1.19h-.13c-.547 0-.933-.32-1.32-.77l-13.973-17.87v17.45c0 .676-.547 1.256-1.255 1.256-.678 0-1.225-.58-1.225-1.256V18.532zM128.174 18.5c0-.708.58-1.288 1.256-1.288.708 0 1.287.58 1.287 1.288v12.33l12.847-13.167c.29-.257.58-.45.998-.45.676 0 1.224.61 1.224 1.255 0 .354-.16.644-.42.9l-7.983 7.92 8.564 10.562c.225.29.354.547.354.934 0 .676-.578 1.288-1.286 1.288-.483 0-.806-.258-1.03-.58L135.58 29.03l-4.86 4.86v4.894c0 .708-.58 1.288-1.288 1.288-.677 0-1.256-.58-1.256-1.288V18.5z"/><path fill="#D22856" d="M98.498 9.875c-2.002 0-3.624-1.623-3.624-3.624 0 2.002-1.622 3.625-3.624 3.625 2.002 0 3.624 1.623 3.624 3.624 0-2.002 1.622-3.625 3.624-3.625z"/><g fill="#D22856"><path d="M43.094 19.312c.246 0 .488.014.73.033-.44-.728-1.228-1.22-2.137-1.22-.877 0-1.614-.57-1.884-1.355-.727.207-1.425.482-2.09.816.063.017.124.038.19.038 1.104 0 2 .896 2 2 0 .096-.015.188-.028.28 1-.38 2.084-.592 3.22-.592z"/><path d="M60.498 28.32c0-.054-.01-.105-.016-.158-.006-.05-.01-.098-.02-.146-.002-.01 0-.017-.003-.025L55.286 6.65c-.36-2.347-2.593-6.65-8.6-6.65-.828 0-1.5.67-1.5 1.5s.672 1.5 1.5 1.5c4.857 0 5.576 3.73 5.64 4.143l4.767 19.7H55.02c-.444-3.556-2.45-6.627-5.303-8.522-.898.38-1.53 1.27-1.53 2.304 0 .087-.015.17-.026.255 1.993 1.357 3.416 3.488 3.83 5.964.083.49.136.988.136 1.5s-.053 1.01-.135 1.5c-.715 4.272-4.42 7.53-8.895 7.53s-8.18-3.258-8.896-7.53c-.083-.49-.136-.988-.136-1.5s.053-1.01.135-1.5c.146-.88.426-1.71.807-2.484-1.033-.078-1.85-.932-1.85-1.985 0-.19-.077-.358-.193-.49-.938 1.47-1.57 3.15-1.796 4.958H29.46c-.742-5.927-5.802-10.53-11.927-10.53s-11.187 4.604-11.93 10.53H3.408l4.74-19.552.027-.147C8.197 6.973 8.802 3 13.812 3c.83 0 1.5-.67 1.5-1.5s-.67-1.5-1.5-1.5c-6.006 0-8.238 4.303-8.6 6.65L.043 27.99c-.002.01 0 .017-.003.025-.012.05-.015.098-.02.146-.008.054-.017.105-.017.16L0 28.343c0 .035.008.068.01.103.004.058.007.115.017.17.01.047.023.092.036.137.014.048.026.096.044.142.018.046.042.09.064.133.022.04.043.084.068.123.026.04.057.077.086.114.03.04.06.078.093.113.032.033.067.062.102.092.038.033.075.067.116.097.04.026.082.05.123.072.04.024.082.05.127.07.05.02.1.037.152.054.035.012.067.028.104.037.008.002.015 0 .023.003.107.023.217.04.33.04h4.104c.07.57.194 1.122.343 1.665.017-.06.038-.12.038-.187 0-1.104.896-2 2-2 .208 0 .405.04.594.1-.043-.355-.077-.713-.077-1.08 0-.51.053-1.01.135-1.5.716-4.27 4.42-7.53 8.896-7.53s8.182 3.26 8.897 7.53c.082.49.135.99.135 1.5s-.053 1.012-.135 1.5c-.716 4.273-4.42 7.532-8.896 7.532-2.047 0-3.93-.688-5.443-1.84-.356.33-.83.537-1.354.537-.413 0-.75.336-.75.748 0 .265-.053.516-.146.747 2.086 1.747 4.765 2.808 7.694 2.808 6.126 0 11.187-4.604 11.928-10.53h1.708c.742 5.926 5.802 10.53 11.927 10.53S54.28 35.77 55.02 29.845H59c.114 0 .224-.017.33-.04.01-.002.016 0 .024-.003.037-.01.07-.025.105-.037.05-.017.103-.032.15-.054.046-.02.087-.045.13-.07.04-.022.083-.045.122-.072.042-.03.08-.063.117-.097.033-.028.07-.058.1-.09.035-.036.064-.075.094-.114.03-.037.06-.074.086-.114.025-.04.045-.082.067-.124.023-.043.046-.087.064-.133.02-.046.032-.094.045-.142.013-.045.027-.09.036-.136.01-.056.014-.113.018-.17.002-.035.01-.068.01-.104.002-.007 0-.015 0-.023z"/></g><path fill="#283645" d="M50.686 16.125c-2.485 0-4.5-2.014-4.5-4.5 0 2.486-2.013 4.5-4.498 4.5 2.485 0 4.5 2.014 4.5 4.5 0-2.486 2.012-4.5 4.498-4.5zM37.904 19.626c-1.52 0-2.75-1.23-2.75-2.75 0 1.52-1.23 2.75-2.748 2.75 1.52 0 2.75 1.23 2.75 2.75 0-1.52 1.23-2.75 2.748-2.75zM10.734 34.072c-1.52 0-2.75-1.23-2.75-2.75 0 1.52-1.23 2.75-2.748 2.75 1.52 0 2.75 1.23 2.75 2.748 0-1.517 1.23-2.748 2.748-2.748z"/></symbol><symbol id="sp-logo-blue-tablet" viewBox="0 0 146.3 40.375"><path d="M71.874 18.66c0-.707.58-1.287 1.256-1.287h7.18c5.087 0 8.436 2.704 8.436 7.147v.064c0 4.86-4.057 7.373-8.854 7.373h-5.474v6.825c0 .708-.58 1.288-1.288 1.288-.676 0-1.256-.58-1.256-1.288v-20.12zm8.114 10.98c3.734 0 6.182-1.996 6.182-4.958v-.064c0-3.22-2.415-4.894-6.054-4.894h-5.698v9.917h5.57zM93.603 18.5c0-.708.58-1.288 1.255-1.288.71 0 1.288.58 1.288 1.288v20.283c0 .708-.58 1.288-1.288 1.288-.676 0-1.255-.58-1.255-1.287V18.5zM102.744 18.532c0-.676.58-1.256 1.256-1.256h.354c.58 0 .934.29 1.288.74l13.684 17.45V18.468c0-.676.547-1.256 1.256-1.256.676 0 1.223.58 1.223 1.256v20.348c0 .676-.482 1.19-1.158 1.19h-.13c-.547 0-.933-.32-1.32-.77l-13.973-17.87v17.45c0 .676-.547 1.256-1.255 1.256-.678 0-1.225-.58-1.225-1.256V18.532zM128.174 18.5c0-.708.58-1.288 1.256-1.288.708 0 1.287.58 1.287 1.288v12.33l12.847-13.167c.29-.257.58-.45.998-.45.676 0 1.224.61 1.224 1.255 0 .354-.16.644-.42.9l-7.983 7.92 8.564 10.562c.225.29.354.547.354.934 0 .676-.578 1.288-1.286 1.288-.483 0-.806-.258-1.03-.58L135.58 29.03l-4.86 4.86v4.894c0 .708-.58 1.288-1.288 1.288-.677 0-1.256-.58-1.256-1.288V18.5z"/><path fill="#D22856" d="M60.498 28.32c0-.054-.01-.105-.016-.158-.006-.05-.01-.098-.02-.146-.002-.01 0-.017-.003-.025L55.286 6.65c-.36-2.347-2.593-6.65-8.6-6.65-.828 0-1.5.67-1.5 1.5s.672 1.5 1.5 1.5c4.857 0 5.576 3.73 5.64 4.143l4.767 19.7H55.02c-.74-5.926-5.8-10.53-11.926-10.53s-11.186 4.604-11.927 10.53H29.46c-.743-5.926-5.803-10.53-11.928-10.53S6.346 20.917 5.604 26.843H3.407l4.74-19.552.027-.147C8.197 6.973 8.802 3 13.812 3c.83 0 1.5-.67 1.5-1.5s-.67-1.5-1.5-1.5c-6.006 0-8.238 4.303-8.6 6.65L.043 27.99c-.002.01 0 .017-.003.025-.012.05-.015.098-.02.146-.008.054-.017.105-.017.16L0 28.343c0 .035.008.068.01.103.004.058.007.115.017.17.01.047.023.092.036.137.014.048.026.096.044.142.018.046.042.09.064.133.022.04.043.084.068.123.026.04.057.077.086.114.03.04.06.078.093.113.032.033.067.062.102.092.038.033.075.067.116.097.04.026.082.05.123.072.04.024.082.05.127.07.05.02.1.037.152.054.035.012.067.028.104.037.008.002.015 0 .023.003.107.023.217.04.33.04h4.104c.742 5.926 5.802 10.53 11.927 10.53s11.185-4.604 11.926-10.53h1.708c.742 5.926 5.802 10.53 11.927 10.53s11.187-4.604 11.928-10.53H59c.114 0 .224-.017.33-.04.01-.002.016 0 .024-.003.037-.01.07-.025.105-.037.05-.017.103-.032.15-.054.046-.02.087-.046.13-.07.04-.023.083-.046.122-.073.042-.03.08-.064.117-.098.033-.03.07-.06.1-.092.035-.035.064-.074.094-.113.03-.037.06-.074.086-.114.025-.04.045-.082.067-.124.023-.044.046-.088.064-.134.02-.046.032-.094.045-.142.013-.045.027-.09.036-.136.01-.056.014-.113.018-.17.002-.035.01-.068.01-.104.002-.008 0-.016 0-.024zM17.53 37.375c-4.474 0-8.18-3.26-8.895-7.53-.082-.49-.135-.99-.135-1.5s.053-1.012.135-1.5c.716-4.272 4.42-7.532 8.896-7.532s8.182 3.26 8.897 7.53c.082.49.135.99.135 1.5s-.053 1.012-.135 1.5c-.715 4.273-4.42 7.532-8.896 7.532zm25.564 0c-4.475 0-8.18-3.26-8.896-7.53-.082-.49-.135-.99-.135-1.5s.053-1.012.135-1.5c.716-4.272 4.42-7.532 8.896-7.532s8.18 3.26 8.896 7.53c.082.49.135.99.135 1.5s-.053 1.012-.135 1.5c-.716 4.273-4.42 7.532-8.896 7.532z"/></symbol><symbol id="sp-logo-white-desktop" viewBox="0 0 146.3 40.375"><path d="M71.874 18.66c0-.707.58-1.287 1.256-1.287h7.18c5.087 0 8.436 2.704 8.436 7.147v.064c0 4.86-4.057 7.373-8.854 7.373h-5.474v6.825c0 .708-.58 1.288-1.288 1.288-.676 0-1.256-.58-1.256-1.288v-20.12zm8.114 10.98c3.734 0 6.182-1.996 6.182-4.958v-.064c0-3.22-2.415-4.894-6.054-4.894h-5.698v9.917h5.57zM93.603 18.5c0-.708.58-1.288 1.255-1.288.71 0 1.288.58 1.288 1.288v20.283c0 .708-.58 1.288-1.288 1.288-.676 0-1.255-.58-1.255-1.287V18.5zM102.744 18.532c0-.676.58-1.256 1.256-1.256h.354c.58 0 .934.29 1.288.74l13.684 17.45V18.468c0-.676.547-1.256 1.256-1.256.676 0 1.223.58 1.223 1.256v20.348c0 .676-.482 1.19-1.158 1.19h-.13c-.547 0-.933-.32-1.32-.77l-13.973-17.87v17.45c0 .676-.547 1.256-1.255 1.256-.678 0-1.225-.58-1.225-1.256V18.532zM128.174 18.5c0-.708.58-1.288 1.256-1.288.708 0 1.287.58 1.287 1.288v12.33l12.847-13.167c.29-.257.58-.45.998-.45.676 0 1.224.61 1.224 1.255 0 .354-.16.644-.42.9l-7.983 7.92 8.564 10.562c.225.29.354.547.354.934 0 .676-.578 1.288-1.286 1.288-.483 0-.806-.258-1.03-.58L135.58 29.03l-4.86 4.86v4.894c0 .708-.58 1.288-1.288 1.288-.677 0-1.256-.58-1.256-1.288V18.5z"/><path fill="#D22856" d="M98.498 9.875c-2.002 0-3.624-1.623-3.624-3.624 0 2.002-1.622 3.625-3.624 3.625 2.002 0 3.624 1.623 3.624 3.624 0-2.002 1.622-3.625 3.624-3.625z"/><path d="M43.094 19.312c.246 0 .488.014.73.033-.44-.728-1.228-1.22-2.137-1.22-.877 0-1.614-.57-1.884-1.355-.727.207-1.425.482-2.09.816.063.017.124.038.19.038 1.104 0 2 .896 2 2 0 .096-.015.188-.028.28 1-.38 2.084-.592 3.22-.592z"/><path d="M60.498 28.32c0-.054-.01-.105-.016-.158-.006-.05-.01-.098-.02-.146-.002-.01 0-.017-.003-.025L55.286 6.65c-.36-2.347-2.593-6.65-8.6-6.65-.828 0-1.5.67-1.5 1.5s.672 1.5 1.5 1.5c4.857 0 5.576 3.73 5.64 4.143l4.767 19.7H55.02c-.444-3.556-2.45-6.627-5.303-8.522-.898.38-1.53 1.27-1.53 2.304 0 .087-.015.17-.026.255 1.993 1.357 3.416 3.488 3.83 5.964.083.49.136.988.136 1.5s-.053 1.01-.135 1.5c-.715 4.272-4.42 7.53-8.895 7.53s-8.18-3.258-8.896-7.53c-.083-.49-.136-.988-.136-1.5s.053-1.01.135-1.5c.146-.88.426-1.71.807-2.484-1.033-.078-1.85-.932-1.85-1.985 0-.19-.077-.358-.193-.49-.938 1.47-1.57 3.15-1.796 4.958H29.46c-.742-5.927-5.802-10.53-11.927-10.53s-11.187 4.604-11.93 10.53H3.408l4.74-19.552.027-.147C8.197 6.973 8.802 3 13.812 3c.83 0 1.5-.67 1.5-1.5s-.67-1.5-1.5-1.5c-6.006 0-8.238 4.303-8.6 6.65L.043 27.99c-.002.01 0 .017-.003.025-.012.05-.015.098-.02.146-.008.054-.017.105-.017.16L0 28.343c0 .035.008.068.01.103.004.058.007.115.017.17.01.047.023.092.036.137.014.048.026.096.044.142.018.046.042.09.064.133.022.04.043.084.068.123.026.04.057.077.086.114.03.04.06.078.093.113.032.033.067.062.102.092.038.033.075.067.116.097.04.026.082.05.123.072.04.024.082.05.127.07.05.02.1.037.152.054.035.012.067.028.104.037.008.002.015 0 .023.003.107.023.217.04.33.04h4.104c.07.57.194 1.122.343 1.665.017-.06.038-.12.038-.187 0-1.104.896-2 2-2 .208 0 .405.04.594.1-.043-.355-.077-.713-.077-1.08 0-.51.053-1.01.135-1.5.716-4.27 4.42-7.53 8.896-7.53s8.182 3.26 8.897 7.53c.082.49.135.99.135 1.5s-.053 1.012-.135 1.5c-.716 4.273-4.42 7.532-8.896 7.532-2.047 0-3.93-.688-5.443-1.84-.356.33-.83.537-1.354.537-.413 0-.75.336-.75.748 0 .265-.053.516-.146.747 2.086 1.747 4.765 2.808 7.694 2.808 6.126 0 11.187-4.604 11.928-10.53h1.708c.742 5.926 5.802 10.53 11.927 10.53S54.28 35.77 55.02 29.845H59c.114 0 .224-.017.33-.04.01-.002.016 0 .024-.003.037-.01.07-.025.105-.037.05-.017.103-.032.15-.054.046-.02.087-.045.13-.07.04-.022.083-.045.122-.072.042-.03.08-.063.117-.097.033-.028.07-.058.1-.09.035-.036.064-.075.094-.114.03-.037.06-.074.086-.114.025-.04.045-.082.067-.124.023-.043.046-.087.064-.133.02-.046.032-.094.045-.142.013-.045.027-.09.036-.136.01-.056.014-.113.018-.17.002-.035.01-.068.01-.104.002-.007 0-.015 0-.023z"/><path fill="#D22856" d="M50.686 16.125c-2.485 0-4.5-2.014-4.5-4.5 0 2.486-2.013 4.5-4.498 4.5 2.485 0 4.5 2.014 4.5 4.5 0-2.486 2.012-4.5 4.498-4.5zM37.904 19.626c-1.52 0-2.75-1.23-2.75-2.75 0 1.52-1.23 2.75-2.748 2.75 1.52 0 2.75 1.23 2.75 2.75 0-1.52 1.23-2.75 2.748-2.75zM10.734 34.072c-1.52 0-2.75-1.23-2.75-2.75 0 1.52-1.23 2.75-2.748 2.75 1.52 0 2.75 1.23 2.75 2.748 0-1.517 1.23-2.748 2.748-2.748z"/></symbol><symbol id="sp-logo-white-mobile" viewBox="0 0 74.426 22.859"><path d="M0 1.45C0 .74.58.16 1.256.16h7.18c5.087 0 8.436 2.705 8.436 7.148v.064c0 4.86-4.057 7.373-8.854 7.373H2.544v6.825c0 .708-.58 1.288-1.288 1.288C.58 22.858 0 22.278 0 21.57V1.45zm8.114 10.978c3.734 0 6.182-1.996 6.182-4.958v-.065c0-3.22-2.415-4.894-6.054-4.894H2.544v9.918h5.57zM21.73 1.288C21.73.58 22.307 0 22.982 0c.71 0 1.288.58 1.288 1.288V21.57c0 .71-.578 1.29-1.287 1.29-.676 0-1.255-.58-1.255-1.29V1.29zM30.87 1.32c0-.676.58-1.256 1.256-1.256h.354c.58 0 .934.29 1.288.74l13.684 17.45V1.256C47.452.58 47.998 0 48.707 0c.676 0 1.223.58 1.223 1.256v20.348c0 .676-.482 1.19-1.158 1.19h-.13c-.547 0-.933-.32-1.32-.77L33.35 4.153v17.45c0 .675-.548 1.255-1.256 1.255-.677 0-1.224-.58-1.224-1.257V1.32zM56.3 1.288C56.3.58 56.88 0 57.556 0c.708 0 1.287.58 1.287 1.288v12.33L71.69.452c.29-.257.58-.45.998-.45.676 0 1.224.612 1.224 1.256 0 .354-.16.644-.42.9l-7.983 7.92 8.563 10.562c.225.29.354.547.354.934 0 .676-.58 1.288-1.287 1.288-.483 0-.806-.258-1.03-.58l-8.403-10.463-4.862 4.86v4.895c0 .708-.58 1.288-1.287 1.288-.677 0-1.256-.58-1.256-1.288V1.288z"/></symbol><symbol id="sp-logo-white-tablet" viewBox="0 0 146.3 40.375"><path d="M71.874 18.66c0-.707.58-1.287 1.256-1.287h7.18c5.087 0 8.436 2.704 8.436 7.147v.064c0 4.86-4.057 7.373-8.854 7.373h-5.474v6.825c0 .708-.58 1.288-1.288 1.288-.676 0-1.256-.58-1.256-1.288v-20.12zm8.114 10.98c3.734 0 6.182-1.996 6.182-4.958v-.064c0-3.22-2.415-4.894-6.054-4.894h-5.698v9.917h5.57zM93.603 18.5c0-.708.58-1.288 1.255-1.288.71 0 1.288.58 1.288 1.288v20.283c0 .708-.58 1.288-1.288 1.288-.676 0-1.255-.58-1.255-1.287V18.5zM102.744 18.532c0-.676.58-1.256 1.256-1.256h.354c.58 0 .934.29 1.288.74l13.684 17.45V18.468c0-.676.547-1.256 1.256-1.256.676 0 1.223.58 1.223 1.256v20.348c0 .676-.482 1.19-1.158 1.19h-.13c-.547 0-.933-.32-1.32-.77l-13.973-17.87v17.45c0 .676-.547 1.256-1.255 1.256-.678 0-1.225-.58-1.225-1.256V18.532zM128.174 18.5c0-.708.58-1.288 1.256-1.288.708 0 1.287.58 1.287 1.288v12.33l12.847-13.167c.29-.257.58-.45.998-.45.676 0 1.224.61 1.224 1.255 0 .354-.16.644-.42.9l-7.983 7.92 8.564 10.562c.225.29.354.547.354.934 0 .676-.578 1.288-1.286 1.288-.483 0-.806-.258-1.03-.58L135.58 29.03l-4.86 4.86v4.894c0 .708-.58 1.288-1.288 1.288-.677 0-1.256-.58-1.256-1.288V18.5z"/><path d="M60.498 28.32c0-.054-.01-.105-.016-.158-.006-.05-.01-.098-.02-.146-.002-.01 0-.017-.003-.025L55.286 6.65c-.36-2.347-2.593-6.65-8.6-6.65-.828 0-1.5.67-1.5 1.5s.672 1.5 1.5 1.5c4.857 0 5.576 3.73 5.64 4.143l4.767 19.7H55.02c-.74-5.926-5.8-10.53-11.926-10.53s-11.186 4.604-11.927 10.53H29.46c-.743-5.926-5.803-10.53-11.928-10.53S6.346 20.917 5.604 26.843H3.407l4.74-19.552.027-.147C8.197 6.973 8.802 3 13.812 3c.83 0 1.5-.67 1.5-1.5s-.67-1.5-1.5-1.5c-6.006 0-8.238 4.303-8.6 6.65L.043 27.99c-.002.01 0 .017-.003.025-.012.05-.015.098-.02.146-.008.054-.017.105-.017.16L0 28.343c0 .035.008.068.01.103.004.058.007.115.017.17.01.047.023.092.036.137.014.048.026.096.044.142.018.046.042.09.064.133.022.04.043.084.068.123.026.04.057.077.086.114.03.04.06.078.093.113.032.033.067.062.102.092.038.033.075.067.116.097.04.026.082.05.123.072.04.024.082.05.127.07.05.02.1.037.152.054.035.012.067.028.104.037.008.002.015 0 .023.003.107.023.217.04.33.04h4.104c.742 5.926 5.802 10.53 11.927 10.53s11.185-4.604 11.926-10.53h1.708c.742 5.926 5.802 10.53 11.927 10.53s11.187-4.604 11.928-10.53H59c.114 0 .224-.017.33-.04.01-.002.016 0 .024-.003.037-.01.07-.025.105-.037.05-.017.103-.032.15-.054.046-.02.087-.046.13-.07.04-.023.083-.046.122-.073.042-.03.08-.064.117-.098.033-.03.07-.06.1-.092.035-.035.064-.074.094-.113.03-.037.06-.074.086-.114.025-.04.045-.082.067-.124.023-.044.046-.088.064-.134.02-.046.032-.094.045-.142.013-.045.027-.09.036-.136.01-.056.014-.113.018-.17.002-.035.01-.068.01-.104.002-.008 0-.016 0-.024zM17.53 37.375c-4.474 0-8.18-3.26-8.895-7.53-.082-.49-.135-.99-.135-1.5s.053-1.012.135-1.5c.716-4.272 4.42-7.532 8.896-7.532s8.182 3.26 8.897 7.53c.082.49.135.99.135 1.5s-.053 1.012-.135 1.5c-.715 4.273-4.42 7.532-8.896 7.532zm25.564 0c-4.475 0-8.18-3.26-8.896-7.53-.082-.49-.135-.99-.135-1.5s.053-1.012.135-1.5c.716-4.272 4.42-7.532 8.896-7.532s8.18 3.26 8.896 7.53c.082.49.135.99.135 1.5s-.053 1.012-.135 1.5c-.716 4.273-4.42 7.532-8.896 7.532z"/></symbol><symbol id="sp-menu-burger" viewBox="0 0 49.945 24.007"><path d="M1.137 0C.51 0 0 .428 0 1.01v1.98C0 3.55.494 4 1.138 4h47.67c.63 0 1.14-.427 1.14-1.01V1.01c0-.558-.495-1.01-1.14-1.01H1.14zm0 10.003C.51 10.003 0 10.43 0 11.013v1.98c0 .557.494 1.01 1.138 1.01h47.67c.63 0 1.14-.428 1.14-1.01v-1.98c0-.558-.495-1.01-1.14-1.01H1.14zm0 10.002c-.627 0-1.137.43-1.137 1.01v1.982c0 .557.494 1.01 1.138 1.01h47.67c.63 0 1.14-.428 1.14-1.01v-1.98c0-.56-.495-1.012-1.14-1.012H1.14z"/><path d="M1.137 0C.51 0 0 .428 0 1.01v1.98C0 3.55.494 4 1.138 4h47.67c.63 0 1.14-.427 1.14-1.01V1.01c0-.558-.495-1.01-1.14-1.01H1.14zm0 10.003C.51 10.003 0 10.43 0 11.013v1.98c0 .557.494 1.01 1.138 1.01h47.67c.63 0 1.14-.428 1.14-1.01v-1.98c0-.558-.495-1.01-1.14-1.01H1.14zm0 10.002c-.627 0-1.137.43-1.137 1.01v1.982c0 .557.494 1.01 1.138 1.01h47.67c.63 0 1.14-.428 1.14-1.01v-1.98c0-.56-.495-1.012-1.14-1.012H1.14z"/></symbol><symbol id="sp-menu-cross" viewBox="0 0 23.866 23.866"><path d="M15.087 11.933l8.56-8.56c.293-.292.293-.767 0-1.06L21.554.22c-.14-.14-.33-.22-.53-.22s-.39.08-.53.22l-8.56 8.56L3.373.22c-.283-.282-.78-.282-1.062 0L.22 2.313c-.293.293-.293.768 0 1.06l8.56 8.56-8.56 8.56c-.293.292-.293.767 0 1.06l2.093 2.094c.14.14.33.22.53.22s.39-.08.53-.22l8.56-8.56 8.56 8.56c.142.14.332.22.53.22s.39-.08.53-.22l2.094-2.094c.293-.293.293-.768 0-1.06l-8.56-8.56z"/></symbol></svg>